# Blender 4.0.2
# www.blender.org
o Cylinder
v 0.000000 0.070230 -0.292537
v 0.000000 0.621225 -0.292537
v 0.253344 0.070230 -0.146268
v 0.253344 0.621225 -0.146268
v 0.253344 0.070230 0.146268
v 0.253344 0.621225 0.146268
v 0.000000 0.070230 0.292537
v 0.000000 0.621225 0.292537
v -0.253344 0.070230 0.146268
v -0.253344 0.621225 0.146268
v -0.253344 0.070230 -0.146268
v -0.253344 0.621225 -0.146268
v 0.095753 3.824433 -0.055283
v 0.000000 3.824433 -0.110566
v 0.095753 3.824433 0.055283
v 0.000000 3.824433 0.110566
v -0.095753 3.824433 0.055283
v -0.095753 3.824433 -0.055283
v -0.778010 0.757035 0.449184
v -0.778010 0.757035 -0.449184
v 0.000000 0.757035 -0.898369
v 0.778010 0.757035 -0.449184
v 0.778010 0.757035 0.449184
v 0.000000 0.757035 0.898369
v -0.253344 1.418910 0.146268
v 0.000000 1.418910 -0.292537
v 0.253344 1.418910 0.146268
v -0.253344 1.418910 -0.146268
v 0.253344 1.418910 -0.146268
v 0.000000 1.418910 0.292537
v -0.679033 1.556601 0.392040
v 0.000000 1.556601 -0.784079
v 0.679033 1.556601 0.392040
v -0.679033 1.556601 -0.392040
v 0.679033 1.556601 -0.392040
v 0.000000 1.556601 0.784079
v -0.253344 2.063378 0.146268
v 0.000000 2.063378 -0.292537
v 0.253344 2.063378 0.146268
v -0.253344 2.063378 -0.146268
v 0.253344 2.063378 -0.146268
v 0.000000 2.063378 0.292537
v -0.249926 1.213345 -0.144295
v 0.249926 1.213345 -0.144295
v 0.000000 1.213345 0.288590
v -0.249926 1.213345 0.144295
v 0.000000 1.213345 -0.288590
v 0.249926 1.213345 0.144295
v -0.253344 2.307764 0.146268
v -0.579346 2.420963 0.334486
v 0.000000 2.307764 -0.292537
v 0.000000 2.420963 -0.668971
v 0.253344 2.307764 0.146268
v 0.579346 2.420963 0.334486
v -0.579346 2.420963 -0.334486
v -0.253344 2.307764 -0.146268
v 0.579346 2.420963 -0.334486
v 0.253344 2.307764 -0.146268
v 0.000000 2.420963 0.668971
v 0.000000 2.307764 0.292537
v -0.253344 2.838856 0.146268
v 0.000000 2.838856 -0.292537
v 0.253344 2.838856 0.146268
v -0.253344 2.838856 -0.146268
v 0.253344 2.838856 -0.146268
v 0.000000 2.838856 0.292537
v -0.253344 3.090493 0.146268
v -0.594065 3.152855 0.342984
v -0.253344 3.549675 0.146268
v 0.000000 3.090493 -0.292537
v 0.000000 3.152855 -0.685967
v 0.000000 3.549675 -0.292537
v 0.253344 3.090493 0.146268
v 0.594065 3.152855 0.342984
v 0.253344 3.549675 0.146268
v -0.253344 3.549675 -0.146268
v -0.594065 3.152855 -0.342984
v -0.253344 3.090493 -0.146268
v 0.253344 3.549675 -0.146268
v 0.594065 3.152855 -0.342984
v 0.253344 3.090493 -0.146268
v 0.000000 3.549675 0.292537
v 0.000000 3.152855 0.685967
v 0.000000 3.090493 0.292537
vn 0.5000 -0.0000 -0.8660
vn 1.0000 -0.0000 -0.0000
vn 0.5000 -0.0000 0.8660
vn -0.5000 -0.0000 0.8660
vn -0.8674 0.4975 -0.0000
vn -1.0000 -0.0000 -0.0000
vn -0.5000 -0.0000 -0.8660
vn -0.0000 -1.0000 -0.0000
vn -0.0000 1.0000 -0.0000
vn 0.4337 0.4975 -0.7512
vn 0.4337 0.4975 0.7512
vn -0.4337 0.4975 -0.7512
vn -0.4337 0.4975 0.7512
vn 0.8674 0.4975 -0.0000
vn 0.2506 -0.9681 -0.0000
vn -0.1253 -0.9681 0.2170
vn -0.1253 -0.9681 -0.2170
vn 0.1253 -0.9681 0.2170
vn 0.1253 -0.9681 -0.2170
vn -0.2506 -0.9681 -0.0000
vn 0.9999 -0.0166 -0.0000
vn -0.4999 -0.0166 0.8659
vn -0.4999 -0.0166 -0.8659
vn 0.4999 -0.0166 0.8659
vn 0.4999 -0.0166 -0.8659
vn -0.9999 -0.0166 -0.0000
vn 0.3078 -0.9515 -0.0000
vn -0.1539 -0.9515 0.2665
vn -0.1539 -0.9515 -0.2665
vn 0.1539 -0.9515 0.2665
vn 0.1539 -0.9515 -0.2665
vn -0.3078 -0.9515 -0.0000
vn 0.7657 0.6432 -0.0000
vn -0.3829 0.6432 0.6631
vn -0.3829 0.6432 -0.6631
vn 0.3829 0.6432 0.6631
vn 0.3829 0.6432 -0.6631
vn -0.7657 0.6432 -0.0000
vn -0.6538 0.7567 -0.0000
vn 0.3269 0.7567 -0.5662
vn 0.3269 0.7567 0.5662
vn -0.3269 0.7567 -0.5662
vn -0.3269 0.7567 0.5662
vn 0.6538 0.7567 -0.0000
vn 0.3280 -0.9447 -0.0000
vn -0.1640 -0.9447 0.2841
vn -0.1640 -0.9447 -0.2841
vn 0.1640 -0.9447 0.2841
vn 0.1640 -0.9447 -0.2841
vn -0.3280 -0.9447 -0.0000
vn 0.7885 0.6151 -0.0000
vn -0.3942 0.6151 0.6828
vn -0.3942 0.6151 -0.6828
vn 0.3942 0.6151 0.6828
vn 0.3942 0.6151 -0.6828
vn -0.7885 0.6151 -0.0000
vn 0.1800 -0.9837 -0.0000
vn 0.7587 0.6514 -0.0000
vn -0.0900 -0.9837 0.1559
vn -0.3793 0.6514 0.6571
vn -0.0900 -0.9837 -0.1559
vn -0.3794 0.6514 -0.6571
vn 0.0900 -0.9837 0.1559
vn 0.3794 0.6514 0.6571
vn 0.0900 -0.9837 -0.1559
vn 0.3793 0.6514 -0.6571
vn -0.1800 -0.9837 -0.0000
vn -0.7587 0.6514 -0.0000
vn -0.3793 0.6514 -0.6571
vn 0.3793 0.6514 0.6571
vt 1.000000 1.000000
vt 0.833333 0.500000
vt 1.000000 0.500000
vt 0.833333 1.000000
vt 0.666667 0.500000
vt 0.666667 1.000000
vt 0.500000 0.500000
vt 0.500000 1.000000
vt 0.333333 0.500000
vt 0.333333 1.000000
vt 0.166667 1.000000
vt 0.166667 1.000000
vt 0.166667 0.500000
vt -0.000000 0.500000
vt 0.957846 0.370000
vt 0.750000 0.010000
vt 0.542154 0.370000
vt 0.250000 0.490000
vt 0.042154 0.130000
vt 0.457846 0.130000
vt 0.833333 1.000000
vt -0.000000 1.000000
vt 0.166667 1.000000
vt -0.000000 1.000000
vt 1.000000 1.000000
vt 0.166667 1.000000
vt 0.750000 0.490000
vt 0.957846 0.130000
vt 0.542154 0.130000
vt 0.457846 0.370000
vt 0.042154 0.370000
vt 0.250000 0.010000
f 2/1/1 3/2/1 1/3/1
f 4/4/2 5/5/2 3/2/2
f 6/6/3 7/7/3 5/5/3
f 8/8/4 9/9/4 7/7/4
f 69/10/5 18/11/5 76/12/5
f 10/10/6 11/13/6 9/9/6
f 12/11/7 1/14/7 11/13/7
f 3/15/8 7/16/8 11/17/8
f 14/18/9 17/19/9 15/20/9
f 72/1/10 13/4/10 79/21/10
f 75/6/11 16/8/11 82/8/11
f 76/12/12 14/22/12 72/22/12
f 82/8/13 17/10/13 69/10/13
f 79/21/14 15/6/14 75/6/14
f 4/4/15 23/6/15 6/6/15
f 8/8/16 19/10/16 10/10/16
f 12/11/17 21/22/17 2/22/17
f 6/6/18 24/8/18 8/8/18
f 2/1/19 22/4/19 4/4/19
f 10/10/20 20/11/20 12/11/20
f 44/4/21 27/6/21 48/6/21
f 45/8/22 25/10/22 46/10/22
f 43/23/23 26/22/23 47/24/23
f 45/8/24 27/6/24 30/8/24
f 47/25/25 29/4/25 44/4/25
f 43/23/26 25/10/26 28/11/26
f 29/4/27 33/6/27 27/6/27
f 30/8/28 31/10/28 25/10/28
f 28/11/29 32/22/29 26/22/29
f 27/6/30 36/8/30 30/8/30
f 26/1/31 35/21/31 29/4/31
f 25/10/32 34/23/32 28/11/32
f 35/21/33 39/6/33 33/6/33
f 36/8/34 37/10/34 31/10/34
f 34/23/35 38/22/35 32/22/35
f 33/6/36 42/8/36 36/8/36
f 32/1/37 41/21/37 35/21/37
f 31/10/38 40/23/38 34/23/38
f 19/10/39 43/23/39 20/11/39
f 21/1/40 44/4/40 22/4/40
f 23/6/41 45/8/41 24/8/41
f 20/11/42 47/24/42 21/22/42
f 24/8/43 46/10/43 19/10/43
f 22/4/44 48/6/44 23/6/44
f 41/21/2 53/6/2 39/6/2
f 58/21/45 54/6/45 53/6/45
f 42/8/4 49/10/4 37/10/4
f 60/8/46 50/10/46 49/10/46
f 40/23/7 51/22/7 38/22/7
f 56/23/47 52/22/47 51/22/47
f 39/6/3 60/8/3 42/8/3
f 53/6/48 59/8/48 60/8/48
f 38/1/1 58/21/1 41/21/1
f 51/1/49 57/21/49 58/21/49
f 37/10/6 56/23/6 40/23/6
f 49/10/50 55/23/50 56/23/50
f 57/21/51 63/6/51 54/6/51
f 59/8/52 61/10/52 50/10/52
f 55/23/53 62/22/53 52/22/53
f 54/6/54 66/8/54 59/8/54
f 52/1/55 65/21/55 57/21/55
f 50/10/56 64/23/56 55/23/56
f 65/21/2 73/6/2 63/6/2
f 81/21/57 74/6/57 73/6/57
f 80/21/58 75/6/58 74/6/58
f 66/8/4 67/10/4 61/10/4
f 84/8/59 68/10/59 67/10/59
f 83/8/60 69/10/60 68/10/60
f 64/23/7 70/22/7 62/22/7
f 78/26/61 71/22/61 70/22/61
f 77/26/62 72/22/62 71/22/62
f 63/6/3 84/8/3 66/8/3
f 73/6/63 83/8/63 84/8/63
f 74/6/64 82/8/64 83/8/64
f 62/1/1 81/21/1 65/21/1
f 70/1/65 80/21/65 81/21/65
f 71/1/66 79/21/66 80/21/66
f 61/10/6 78/26/6 64/23/6
f 67/10/67 77/26/67 78/26/67
f 68/10/68 76/12/68 77/26/68
f 2/1/1 4/4/1 3/2/1
f 4/4/2 6/6/2 5/5/2
f 6/6/3 8/8/3 7/7/3
f 8/8/4 10/10/4 9/9/4
f 69/10/5 17/10/5 18/11/5
f 10/10/6 12/11/6 11/13/6
f 12/11/7 2/22/7 1/14/7
f 11/17/8 1/27/8 3/15/8
f 3/15/8 5/28/8 7/16/8
f 7/16/8 9/29/8 11/17/8
f 15/20/9 13/30/9 14/18/9
f 14/18/9 18/31/9 17/19/9
f 17/19/9 16/32/9 15/20/9
f 72/1/10 14/1/10 13/4/10
f 75/6/11 15/6/11 16/8/11
f 76/12/12 18/11/12 14/22/12
f 82/8/13 16/8/13 17/10/13
f 79/21/14 13/4/14 15/6/14
f 4/4/15 22/4/15 23/6/15
f 8/8/16 24/8/16 19/10/16
f 12/11/17 20/11/17 21/22/17
f 6/6/18 23/6/18 24/8/18
f 2/1/19 21/1/19 22/4/19
f 10/10/20 19/10/20 20/11/20
f 44/4/21 29/4/21 27/6/21
f 45/8/22 30/8/22 25/10/22
f 43/23/23 28/11/23 26/22/23
f 45/8/24 48/6/24 27/6/24
f 47/25/25 26/1/25 29/4/25
f 43/23/26 46/10/26 25/10/26
f 29/4/27 35/21/27 33/6/27
f 30/8/28 36/8/28 31/10/28
f 28/11/29 34/23/29 32/22/29
f 27/6/30 33/6/30 36/8/30
f 26/1/31 32/1/31 35/21/31
f 25/10/32 31/10/32 34/23/32
f 35/21/33 41/21/33 39/6/33
f 36/8/34 42/8/34 37/10/34
f 34/23/35 40/23/35 38/22/35
f 33/6/36 39/6/36 42/8/36
f 32/1/37 38/1/37 41/21/37
f 31/10/38 37/10/38 40/23/38
f 19/10/39 46/10/39 43/23/39
f 21/1/40 47/25/40 44/4/40
f 23/6/41 48/6/41 45/8/41
f 20/11/42 43/23/42 47/24/42
f 24/8/43 45/8/43 46/10/43
f 22/4/44 44/4/44 48/6/44
f 41/21/2 58/21/2 53/6/2
f 58/21/45 57/21/45 54/6/45
f 42/8/4 60/8/4 49/10/4
f 60/8/46 59/8/46 50/10/46
f 40/23/7 56/23/7 51/22/7
f 56/23/47 55/23/47 52/22/47
f 39/6/3 53/6/3 60/8/3
f 53/6/48 54/6/48 59/8/48
f 38/1/1 51/1/1 58/21/1
f 51/1/49 52/1/49 57/21/49
f 37/10/6 49/10/6 56/23/6
f 49/10/50 50/10/50 55/23/50
f 57/21/51 65/21/51 63/6/51
f 59/8/52 66/8/52 61/10/52
f 55/23/53 64/23/53 62/22/53
f 54/6/54 63/6/54 66/8/54
f 52/1/55 62/1/55 65/21/55
f 50/10/56 61/10/56 64/23/56
f 65/21/2 81/21/2 73/6/2
f 81/21/57 80/21/57 74/6/57
f 80/21/58 79/21/58 75/6/58
f 66/8/4 84/8/4 67/10/4
f 84/8/59 83/8/59 68/10/59
f 83/8/60 82/8/60 69/10/60
f 64/23/7 78/26/7 70/22/7
f 78/26/61 77/26/61 71/22/61
f 77/26/69 76/12/69 72/22/69
f 63/6/3 73/6/3 84/8/3
f 73/6/63 74/6/63 83/8/63
f 74/6/70 75/6/70 82/8/70
f 62/1/1 70/1/1 81/21/1
f 70/1/65 71/1/65 80/21/65
f 71/1/66 72/1/66 79/21/66
f 61/10/6 67/10/6 78/26/6
f 67/10/67 68/10/67 77/26/67
f 68/10/68 69/10/68 76/12/68
