# Blender 4.0.2
# www.blender.org
o Cylinder.001
v 0.000000 -0.023083 -0.416871
v 0.000000 1.878346 -0.416871
v 0.361021 -0.023083 -0.208435
v 0.361021 1.878346 -0.208435
v 0.361021 -0.023083 0.208435
v 0.361021 1.878346 0.208435
v 0.000000 -0.023083 0.416871
v 0.000000 1.878346 0.416871
v -0.361021 -0.023083 0.208435
v -0.361021 1.878346 0.208435
v -0.361021 -0.023083 -0.208435
v -0.361021 1.878346 -0.208435
v 0.849356 2.161448 -0.490376
v 0.000000 2.161448 -0.980752
v 0.849356 2.161448 0.490376
v 0.000000 2.161448 0.980752
v -0.849356 2.161448 0.490376
v -0.849356 2.161448 -0.490376
v 0.849356 3.401726 -0.490376
v 0.000000 3.401726 -0.980752
v 0.849356 3.401726 0.490376
v 0.000000 3.401726 0.980752
v -0.849356 3.401726 0.490376
v -0.849356 3.401726 -0.490376
v 0.228610 3.889621 -0.131988
v 0.000000 3.889621 -0.263977
v 0.228610 3.889621 0.131988
v 0.000000 3.889621 0.263977
v -0.228610 3.889621 0.131988
v -0.228610 3.889621 -0.131988
vn 0.5000 -0.0000 -0.8660
vn 1.0000 -0.0000 -0.0000
vn 0.5000 -0.0000 0.8660
vn -0.5000 -0.0000 0.8660
vn -0.2508 -0.8651 -0.4343
vn -1.0000 -0.0000 -0.0000
vn -0.5000 -0.0000 -0.8660
vn -0.0000 -1.0000 -0.0000
vn -0.2508 -0.8651 0.4343
vn 0.5015 -0.8651 -0.0000
vn -0.5015 -0.8651 -0.0000
vn 0.2508 -0.8651 -0.4343
vn 0.2508 -0.8651 0.4343
vn -0.3090 0.7862 -0.5352
vn -0.0000 1.0000 -0.0000
vn -0.3090 0.7862 0.5352
vn 0.6180 0.7862 -0.0000
vn -0.6180 0.7862 -0.0000
vn 0.3090 0.7862 0.5352
vn 0.3090 0.7862 -0.5352
vt 1.000000 1.000000
vt 0.833333 0.500000
vt 1.000000 0.500000
vt 0.833333 1.000000
vt 0.666667 0.500000
vt 0.666667 1.000000
vt 0.500000 0.500000
vt 0.500000 1.000000
vt 0.333333 0.500000
vt 0.166667 1.000000
vt -0.000000 1.000000
vt 0.333333 1.000000
vt 0.166667 0.500000
vt -0.000000 0.500000
vt 0.957846 0.370000
vt 0.750000 0.010000
vt 0.542154 0.370000
vt 0.250000 0.490000
vt 0.042154 0.130000
vt 0.457846 0.130000
vt 0.750000 0.490000
vt 0.957846 0.130000
vt 0.542154 0.130000
vt 0.457846 0.370000
vt 0.042154 0.370000
vt 0.250000 0.010000
f 2/1/1 3/2/1 1/3/1
f 4/4/2 5/5/2 3/2/2
f 6/6/3 7/7/3 5/5/3
f 8/8/4 9/9/4 7/7/4
f 12/10/5 14/11/5 2/11/5
f 10/12/6 11/13/6 9/9/6
f 12/10/7 1/14/7 11/13/7
f 3/15/8 7/16/8 11/17/8
f 17/12/6 24/10/6 18/10/6
f 8/8/9 17/12/9 10/12/9
f 4/4/10 15/6/10 6/6/10
f 10/12/11 18/10/11 12/10/11
f 2/1/12 13/4/12 4/4/12
f 6/6/13 16/8/13 8/8/13
f 24/10/14 26/11/14 20/11/14
f 15/6/3 22/8/3 16/8/3
f 14/1/1 19/4/1 13/4/1
f 18/10/7 20/11/7 14/11/7
f 16/8/4 23/12/4 17/12/4
f 13/4/2 21/6/2 15/6/2
f 26/18/15 29/19/15 27/20/15
f 22/8/16 29/12/16 23/12/16
f 19/4/17 27/6/17 21/6/17
f 23/12/18 30/10/18 24/10/18
f 21/6/19 28/8/19 22/8/19
f 20/1/20 25/4/20 19/4/20
f 2/1/1 4/4/1 3/2/1
f 4/4/2 6/6/2 5/5/2
f 6/6/3 8/8/3 7/7/3
f 8/8/4 10/12/4 9/9/4
f 12/10/5 18/10/5 14/11/5
f 10/12/6 12/10/6 11/13/6
f 12/10/7 2/11/7 1/14/7
f 11/17/8 1/21/8 3/15/8
f 3/15/8 5/22/8 7/16/8
f 7/16/8 9/23/8 11/17/8
f 17/12/6 23/12/6 24/10/6
f 8/8/9 16/8/9 17/12/9
f 4/4/10 13/4/10 15/6/10
f 10/12/11 17/12/11 18/10/11
f 2/1/12 14/1/12 13/4/12
f 6/6/13 15/6/13 16/8/13
f 24/10/14 30/10/14 26/11/14
f 15/6/3 21/6/3 22/8/3
f 14/1/1 20/1/1 19/4/1
f 18/10/7 24/10/7 20/11/7
f 16/8/4 22/8/4 23/12/4
f 13/4/2 19/4/2 21/6/2
f 27/20/15 25/24/15 26/18/15
f 26/18/15 30/25/15 29/19/15
f 29/19/15 28/26/15 27/20/15
f 22/8/16 28/8/16 29/12/16
f 19/4/17 25/4/17 27/6/17
f 23/12/18 29/12/18 30/10/18
f 21/6/19 27/6/19 28/8/19
f 20/1/20 26/1/20 25/4/20
